<?xml version="1.0" standalone="no"?><!DOCTYPE svg PUBLIC "-//W3C//DTD SVG 1.1//EN" "http://www.w3.org/Graphics/SVG/1.1/DTD/svg11.dtd"><svg t="1544702782667" class="icon" style="" viewBox="0 0 1024 1024" version="1.1" xmlns="http://www.w3.org/2000/svg" p-id="1644" xmlns:xlink="http://www.w3.org/1999/xlink" width="200" height="200"><defs><style type="text/css"></style></defs><path d="M600.714726 491.631554 961.653274 491.631554C995.469587 491.631554 1022.88304 464.368269 1022.88304 430.737877L1022.88304 63.106145C1022.88304 29.480045 995.475307 2.212469 961.653274 2.212469L600.714726 2.212469C566.899844 2.212469 539.497833 29.480045 539.497833 63.106145L539.497833 430.737877C539.497833 464.368269 566.899844 491.631554 600.714726 491.631554L600.714726 491.631554ZM582.22838 63.106145C582.22838 53.066369 590.519061 44.898682 600.714726 44.898682L961.653274 44.898682C971.843217 44.898682 980.156783 53.072089 980.156783 63.106145L980.156783 430.737877C980.156783 440.776224 971.843217 448.949632 961.653274 448.949632L600.714726 448.949632C590.519061 448.949632 582.22838 440.776224 582.22838 430.737877L582.22838 63.106145 582.22838 63.106145Z" p-id="1645" fill="#ffffff"></path><path d="M600.714726 1024 961.653274 1024C995.469587 1024 1022.88304 996.720983 1022.88304 963.083441L1022.88304 595.468873C1022.88304 561.83705 995.475307 534.569474 961.653274 534.569474L600.714726 534.569474C566.899844 534.569474 539.497833 561.83705 539.497833 595.468873L539.497833 963.083441C539.497833 996.720983 566.899844 1024 600.714726 1024L600.714726 1024Z" p-id="1646" fill="#ffffff"></path><path d="M61.218324 1024 422.168314 1024C455.983196 1024 483.385207 996.720983 483.385207 963.083441L483.385207 595.468873C483.385207 561.83705 455.983196 534.569474 422.168314 534.569474L61.218324 534.569474C27.419173 534.569474 0 561.83705 0 595.468873L0 963.083441C0 996.720983 27.419173 1024 61.218324 1024L61.218324 1024ZM42.731978 595.468873C42.731978 585.424804 51.0341 577.251396 61.218324 577.251396L422.168314 577.251396C432.362547 577.251396 440.653229 585.424804 440.653229 595.468873L440.653229 963.083441C440.653229 973.14467 432.362547 981.312358 422.168314 981.312358L61.218324 981.312358C51.039821 981.312358 42.731978 973.14467 42.731978 963.083441L42.731978 595.468873 42.731978 595.468873Z" p-id="1647" fill="#ffffff"></path><path d="M61.218324 490.541766 422.168314 490.541766C455.983196 490.541766 483.385207 463.274191 483.385207 429.636649L483.385207 62.016358C483.385207 28.384536 455.983196 1.116961 422.168314 1.116961L61.218324 1.116961C27.419173 1.116961 0 28.384536 0 62.016358L0 429.642368C0 463.274191 27.419173 490.541766 61.218324 490.541766L61.218324 490.541766ZM42.731978 62.016358C42.731978 51.972291 51.0341 43.804603 61.218324 43.804603L422.168314 43.804603C432.362547 43.804603 440.653229 51.972291 440.653229 62.016358L440.653229 429.642368C440.653229 439.686436 432.362547 447.854123 422.168314 447.854123L61.218324 447.854123C51.039821 447.854123 42.731978 439.686436 42.731978 429.642368L42.731978 62.016358 42.731978 62.016358Z" p-id="1648" fill="#ffffff"></path></svg>