<?xml version="1.0" standalone="no"?><!DOCTYPE svg PUBLIC "-//W3C//DTD SVG 1.1//EN" "http://www.w3.org/Graphics/SVG/1.1/DTD/svg11.dtd"><svg t="1544771949078" class="icon" style="" viewBox="0 0 1024 1024" version="1.1" xmlns="http://www.w3.org/2000/svg" p-id="1552" xmlns:xlink="http://www.w3.org/1999/xlink" width="200" height="200"><defs><style type="text/css"></style></defs><path d="M162.736806 420.207741 69.106115 513.838433C55.316568 527.627981 32.959294 527.627981 19.169747 513.838433 5.380199 500.048885 5.380199 477.691611 19.169747 463.902065L112.800438 370.271373 462.459671 20.61214C475.955728 7.116083 493.590221 0.253295 511.296501 0.006868 530.22565-0.043027 548.344615 6.833653 562.123102 20.61214L911.782335 370.271373 1005.413026 463.902065C1019.202572 477.691611 1019.202572 500.048885 1005.413026 513.838433 991.623479 527.627981 969.266204 527.627981 955.476657 513.838433L861.845967 420.207741C861.845967 420.207741 635.791367 194.142291 547.310345 105.556891L547.310345 988.689655C547.310345 1008.19102 531.501365 1024 512 1024 492.498635 1024 476.689655 1008.19102 476.689655 988.689655L476.689655 106.254893 162.736806 420.207741Z" p-id="1553" fill="#ffffff"></path></svg>